
<svg width="782px" height="800px" viewBox="0 0 782 800" version="1.1" xmlns="http://www.w3.org/2000/svg" xmlns:xlink="http://www.w3.org/1999/xlink">
    <g id="页面-1" stroke="none" stroke-width="1" fill="none" fill-rule="evenodd">
        <g id="svg" fill="#000000" fill-rule="nonzero">
            <path d="M774.627367,401.658635 L641.936568,401.658635 L641.936568,312.00269 C710.792334,312.00269 766.558332,256.236692 766.558332,187.380926 C766.558332,183.436064 763.330718,180.20845 759.385857,180.20845 L705.59229,180.20845 C701.647428,180.20845 698.419814,183.436064 698.419814,187.380926 C698.419814,218.581195 673.136837,243.864171 641.936568,243.864171 L139.863275,243.864171 C108.663006,243.864171 83.3800291,218.581195 83.3800291,187.380926 C83.3800291,183.436064 80.1524151,180.20845 76.2075535,180.20845 L22.4139863,180.20845 C18.4691247,180.20845 15.2415107,183.436064 15.2415107,187.380926 C15.2415107,256.236692 71.0075087,312.00269 139.863275,312.00269 L139.863275,401.658635 L7.17247562,401.658635 C3.22761403,401.658635 0,404.886249 0,408.831111 L0,459.03844 C0,462.983302 3.22761403,466.210916 7.17247562,466.210916 L139.863275,466.210916 L139.863275,552.280623 C139.863275,558.10826 140.042587,563.935896 140.490866,569.584221 C78.9868878,595.853413 35.8623781,656.909111 35.8623781,728.006276 C35.8623781,731.951138 39.0899922,735.178752 43.0348537,735.178752 L93.2421831,735.178752 C97.1870447,735.178752 100.414659,731.951138 100.414659,728.006276 C100.414659,688.378348 121.84243,653.681497 153.849602,635.033061 C159.228959,650.453883 166.042811,665.157458 174.201502,678.964474 C195.987896,716.171691 227.098509,747.282304 264.305727,769.068699 C290.216295,784.220554 318.995853,794.889611 349.747843,800 C353.692704,800 356.920318,796.772386 356.920318,792.827524 L356.920318,376.55497 C356.920318,372.610109 360.147932,369.382495 364.092794,369.382495 L417.886361,369.382495 C421.831223,369.382495 425.058837,372.610109 425.058837,376.55497 L425.058837,792.737868 C425.058837,796.68273 428.286451,799.910344 432.231312,799.910344 C462.983302,794.799955 491.76286,784.130898 517.673428,768.979043 C554.880646,747.192648 585.991259,716.082035 607.777653,678.874818 C615.936344,664.978146 622.750196,650.274571 628.129553,634.943405 C659.957413,653.681497 681.385184,688.378348 681.385184,728.006276 C681.385184,731.951138 684.612798,735.178752 688.55766,735.178752 L738.764989,735.178752 C742.709851,735.178752 745.937465,731.951138 745.937465,728.006276 C745.937465,656.909111 702.812955,595.853413 641.308977,569.584221 C641.667601,563.84624 641.936568,558.10826 641.936568,552.280623 L641.936568,466.210916 L774.627367,466.210916 C778.572229,466.210916 781.799843,462.983302 781.799843,459.03844 L781.799843,408.831111 C781.799843,404.886249 778.572229,401.658635 774.627367,401.658635 Z" id="路径"></path>
            <path d="M204.415555,193.656842 L577.384288,193.656842 C581.329149,193.656842 584.556763,190.429228 584.556763,186.484366 C584.556763,150.621988 576.66704,117.718256 561.335874,89.5662894 C545.915051,61.3246666 523.232097,38.6417124 494.990474,23.2208898 C466.838507,7.88972319 433.934775,0 398.072397,0 L383.727446,0 C347.865068,0 314.961336,7.88972319 286.809369,23.2208898 C258.567746,38.6417124 235.884792,61.3246666 220.46397,89.5662894 C205.132803,117.718256 197.24308,150.621988 197.24308,186.484366 C197.24308,190.429228 200.470694,193.656842 204.415555,193.656842 Z" id="路径"></path>
        </g>
    </g>
</svg>
